# File created by Blade
# Date/Time:  Fri Jan 16 14:33:41 2015
# Frame Rate: 120.000 fps
#------------------------------------------------------
:FULLY-SPECIFIED
:DEGREES
2256
root 19.206232 35.712240 -24.105378 -172.326792 -8.037219 -178.996971
Spine -13.196246 -10.653220 -1.891744
Head 3.418027 -7.695648 8.011555
LeftShoulder -10.751908 -13.140062 -0.132236
LeftArm -16.148892 13.726706 -76.364954
LeftForeArm 0.374730 -0.000000 7.780493
LeftHand -1.127564 0.000000 -0.427700
LeftHandThumb1 -26.253704 0.000000 33.147579
RightShoulder -12.491335 -18.684502 5.635301
RightArm 1.915931 19.948849 56.276195
RightForeArm -10.971746 -0.000000 14.548396
RightHand -5.322501 -0.000000 -2.757365
RightHandThumb1 -24.326973 -0.000000 -32.862282
LeftUpLeg -0.735908 5.959944 1.332014
LeftLeg -5.327016 -0.000000 0.000000
LeftFoot -19.039395 24.140732 -14.018960
LeftToeBase 25.681606 -0.000000 -0.000000
RightUpLeg -0.338396 -15.440299 3.823216
RightLeg -3.456232 -0.000000 0.000000
RightFoot -21.457331 -25.650503 17.521884
RightToeBase 22.227141 -0.000000 -0.000000
2257
root 19.206027 35.711533 -24.101147 -172.374392 -8.000175 -179.010141
Spine -13.155400 -10.566215 -1.926953
Head 3.502834 -7.697247 7.990138
LeftShoulder -10.635131 -13.197569 -0.129677
LeftArm -16.164607 13.840768 -76.364743
LeftForeArm 0.344051 -0.000000 7.776821
LeftHand -1.151489 -0.000000 -0.399319
LeftHandThumb1 -26.253704 0.000000 33.147579
RightShoulder -12.305341 -18.333063 5.416810
RightArm 2.127415 21.525831 55.743172
RightForeArm -11.060784 -0.000000 14.281358
RightHand -5.235704 -0.000000 -2.906963
RightHandThumb1 -24.326973 -0.000000 -32.862282
LeftUpLeg -0.674607 5.988241 1.314563
LeftLeg -5.353555 -0.000000 0.000000
LeftFoot -19.027328 24.163436 -14.025859
LeftToeBase 25.620734 -0.000000 -0.000000
RightUpLeg -0.363809 -15.674597 3.806401
RightLeg -3.338443 -0.000000 0.000000
RightFoot -21.448631 -25.421847 17.415370
RightToeBase 22.200669 -0.000000 -0.000000
2258
root 19.206382 35.711351 -24.097299 -172.405449 -7.939515 -179.015806
Spine -13.145416 -10.468009 -1.960093
Head 3.608585 -7.691691 7.996183
LeftShoulder -10.562708 -13.207078 -0.114365
LeftArm -16.111204 13.921170 -76.355513
LeftForeArm 0.266333 0.000000 7.734914
LeftHand -1.160345 -0.000000 -0.329434
LeftHandThumb1 -26.253704 0.000000 33.147579
RightShoulder -12.089005 -18.000699 5.221547
RightArm 2.254509 22.246454 55.161543
RightForeArm -10.244485 -0.000000 14.158285
RightHand -5.359494 -0.000000 -3.752483
RightHandThumb1 -24.326973 -0.000000 -32.862282
LeftUpLeg -0.628667 6.064684 1.300716
LeftLeg -5.380151 -0.000000 0.000000
LeftFoot -19.019080 24.158146 -14.033985
LeftToeBase 25.642413 -0.000000 -0.000000
RightUpLeg -0.339853 -15.696610 3.789619
RightLeg -3.346602 -0.000000 0.000000
RightFoot -21.414030 -25.374060 17.359243
RightToeBase 22.306924 -0.000000 -0.000000
2259
root 19.210138 35.712599 -24.089470 -172.413060 -7.925350 -179.012833
Spine -13.149515 -10.402436 -1.989660
Head 3.691786 -7.713907 8.034406
LeftShoulder -10.490167 -13.220983 -0.103818
LeftArm -16.057259 13.948854 -76.318970
LeftForeArm 0.212840 -0.000000 7.724406
LeftHand -1.133310 -0.000000 -0.291194
LeftHandThumb1 -26.253704 0.000000 33.147579
RightShoulder -11.851049 -17.613600 5.040342
RightArm 2.331872 22.965328 54.525482
RightForeArm -9.859498 -0.000000 13.913300
RightHand -5.335428 -0.000000 -4.171976
RightHandThumb1 -24.326973 -0.000000 -32.862282
LeftUpLeg -0.629630 6.063445 1.305310
LeftLeg -5.386173 -0.000000 0.000000
LeftFoot -19.006844 24.183663 -14.051973
LeftToeBase 25.653114 -0.000000 -0.000000
RightUpLeg -0.339133 -15.695130 3.797107
RightLeg -3.363304 -0.000000 0.000000
RightFoot -21.379543 -25.370417 17.357697
RightToeBase 22.205346 -0.000000 -0.000000
